<?xml version="1.0" standalone="no"?>
<!DOCTYPE svg PUBLIC "-//W3C//DTD SVG 20010904//EN"
 "http://www.w3.org/TR/2001/REC-SVG-20010904/DTD/svg10.dtd">
<svg version="1.0" xmlns="http://www.w3.org/2000/svg"
 width="212.000000pt" height="213.000000pt" viewBox="0 0 212.000000 213.000000"
 preserveAspectRatio="xMidYMid meet">
<metadata>
Created by potrace 1.15, written by Peter Selinger 2001-2017
</metadata>
<g transform="translate(0.000000,213.000000) scale(0.100000,-0.100000)"
fill="#000000" stroke="none">
<path d="M840 2091 c-382 -82 -682 -362 -797 -746 -25 -84 -27 -102 -27 -280
0 -179 2 -195 27 -280 32 -104 79 -208 131 -290 l37 -57 19 25 c11 14 20 29
20 34 0 5 -20 44 -44 86 -96 169 -141 391 -118 585 54 464 404 817 866 872
105 12 194 8 311 -16 l70 -15 23 27 c13 14 21 28 19 31 -3 2 -47 13 -98 23
-123 26 -320 26 -439 1z"/>
<path d="M1408 1987 c-20 -28 -129 -180 -242 -337 -113 -157 -275 -382 -360
-501 l-155 -217 -113 25 c-62 13 -179 39 -259 58 -80 19 -148 35 -151 35 -5 0
0 -89 7 -125 4 -17 20 -24 92 -38 108 -22 323 -74 328 -79 2 -2 -15 -29 -38
-60 -23 -31 -49 -66 -57 -78 -8 -12 -57 -80 -107 -151 -51 -71 -93 -133 -93
-137 0 -5 10 -18 23 -30 l23 -22 79 108 c44 59 92 125 107 147 15 22 38 54 50
71 13 17 39 55 58 83 20 29 42 51 52 51 26 0 23 -8 -30 -77 -26 -34 -76 -104
-112 -154 -36 -50 -81 -112 -100 -138 -20 -25 -46 -62 -58 -83 l-23 -36 30
-21 29 -21 44 61 c23 33 71 99 105 146 35 46 63 87 63 89 0 3 12 22 28 42 15
20 30 41 34 47 4 5 18 24 31 40 12 17 30 42 39 56 l17 27 158 -40 c87 -21 190
-47 228 -57 39 -11 96 -24 127 -31 38 -7 59 -17 62 -28 3 -9 19 -102 37 -207
17 -104 36 -194 40 -199 9 -10 129 41 129 54 0 11 -38 256 -66 428 -69 425
-134 847 -134 866 0 12 21 50 48 85 26 35 55 75 64 90 10 14 24 35 33 46 59
77 125 176 125 188 0 4 -12 13 -27 20 -27 15 -27 14 -92 -74 -59 -78 -206
-285 -222 -311 -4 -6 -13 -7 -22 -2 -13 7 1 32 78 139 107 147 195 274 195
279 0 3 -59 27 -64 26 -1 0 -18 -24 -38 -53z m-153 -898 c25 -166 42 -305 40
-308 -3 -2 -60 10 -127 27 -68 17 -139 34 -158 37 -49 9 -143 37 -154 46 -5 5
72 120 170 258 98 137 180 248 182 246 1 -1 23 -139 47 -306z"/>
<path d="M1058 1072 c-54 -75 -96 -138 -94 -140 9 -8 250 -71 255 -67 2 2 -2
26 -7 52 -6 26 -19 100 -28 163 -10 63 -20 118 -23 121 -3 4 -50 -54 -103
-129z"/>
<path d="M925 1984 c-218 -45 -364 -114 -502 -239 -31 -27 -56 -60 -61 -78 -5
-18 -14 -31 -20 -30 -18 4 -93 -98 -129 -176 -40 -85 -83 -244 -83 -306 l0
-42 53 -12 c30 -6 72 -14 94 -17 23 -2 109 -19 192 -38 l151 -33 78 107 c42
59 119 165 170 236 213 296 422 593 422 602 0 8 -116 32 -157 32 -10 0 -26
-14 -35 -30 -12 -21 -25 -30 -42 -30 -27 0 -56 23 -56 46 0 14 -30 17 -75 8z"/>
<path d="M1647 1902 c-10 -10 -17 -23 -17 -29 0 -6 28 -35 62 -63 141 -118
240 -263 297 -435 108 -325 41 -673 -183 -946 -106 -130 -292 -250 -472 -306
-83 -25 -100 -27 -274 -27 -173 0 -191 2 -273 27 -94 29 -186 72 -254 118 -23
16 -46 29 -52 29 -10 0 -41 -39 -41 -52 0 -13 153 -97 235 -129 239 -93 531
-93 770 0 303 117 535 372 632 696 25 84 27 102 27 280 0 178 -2 196 -27 280
-60 199 -183 392 -328 514 -40 33 -76 61 -79 61 -4 0 -14 -8 -23 -18z"/>
<path d="M1586 1814 c-3 -9 -7 -178 -8 -377 l-3 -362 -5 360 -5 360 -24 -40
c-13 -22 -36 -53 -50 -68 l-26 -28 -3 -228 c-3 -226 4 -329 32 -491 14 -77 64
-394 89 -562 5 -38 13 -68 18 -68 19 0 131 104 187 174 72 89 131 206 169 331
24 81 27 105 27 250 0 145 -3 168 -27 247 -30 98 -112 278 -127 278 -6 0 -11
-102 -13 -257 l-2 -258 -3 276 -2 276 -48 51 c-26 29 -50 52 -54 52 -4 0 -9
-150 -11 -332 l-2 -333 -3 345 -2 346 -44 37 c-51 42 -52 43 -60 21z"/>
<path d="M160 828 c0 -27 84 -216 118 -266 6 -9 27 11 73 70 35 46 69 95 75
109 l12 26 -127 28 c-69 15 -132 30 -138 32 -7 3 -13 3 -13 1z"/>
<path d="M759 663 c-9 -10 -25 -34 -37 -54 -12 -19 -30 -44 -42 -54 -11 -10
-20 -22 -20 -27 0 -4 120 -9 268 -10 l267 -2 -277 -6 c-152 -3 -278 -7 -280
-10 -3 -3 -15 -22 -27 -42 -12 -20 -40 -59 -62 -85 -43 -52 -47 -68 -23 -77
23 -9 24 -8 24 14 0 22 15 27 24 8 5 -10 7 -10 12 0 11 23 24 12 24 -20 0 -22
-3 -29 -9 -20 -7 11 -9 11 -14 -2 -5 -12 6 -22 41 -40 94 -47 265 -95 338 -96
27 0 32 4 37 30 12 55 88 52 95 -4 3 -24 7 -26 48 -26 25 0 76 7 115 16 l70
16 -6 31 c-3 18 -18 105 -34 195 -16 89 -30 164 -32 167 -2 2 -65 19 -139 39
-74 19 -160 41 -190 49 -100 28 -154 31 -171 10z"/>
</g>
</svg>
